<svg width="1659" height="168" viewBox="0 0 1659 168" fill="none" xmlns="http://www.w3.org/2000/svg">
<g style="mix-blend-mode:luminosity" clip-path="url(#clip0_1180_966)">
<path d="M77.8659 99.4363C77.6149 98.8269 77.3796 98.1863 77.1287 97.6394L75.9679 95.0301L75.9208 94.9832C72.4698 87.4832 68.7836 79.8582 64.8777 72.3582L64.7208 72.0457C64.3287 71.3113 63.9365 70.4988 63.5287 69.7488C63.0267 68.8582 62.5404 67.9051 61.7404 66.9988C60.9606 66.0506 59.9792 65.2866 58.867 64.762C57.7549 64.2374 56.5396 63.9653 55.3091 63.9653C54.0785 63.9653 52.8633 64.2374 51.7511 64.762C50.6389 65.2866 49.6575 66.0506 48.8777 66.9988C48.1404 67.9051 47.5914 68.8582 47.0894 69.7488C46.6973 70.5613 46.3051 71.3582 45.8973 72.0926L45.7404 72.4051C41.8973 79.9051 38.1483 87.5301 34.6973 95.0301L34.6032 95.1238C34.2581 95.9363 33.8502 96.7801 33.4581 97.6863C33.2071 98.2332 32.9561 98.8269 32.7051 99.4832C32.0275 101.202 31.8112 103.066 32.0773 104.893C32.3435 106.72 33.083 108.447 34.223 109.903C35.363 111.358 36.8641 112.493 38.5784 113.195C40.2927 113.897 42.1611 114.141 43.9993 113.905C45.7616 113.674 47.4585 113.089 48.9875 112.186C51.0267 111.046 52.9875 109.389 55.1836 106.999C57.3796 109.389 59.3875 111.046 61.3796 112.202C63.2954 113.322 65.4649 113.94 67.6855 113.999C70.2571 114.009 72.7456 113.093 74.6918 111.419C76.6379 109.744 77.9102 107.425 78.2738 104.889C78.6939 103.067 78.5518 101.161 77.8659 99.4207V99.4363ZM55.3404 102.03C52.6424 98.5926 50.8855 95.4363 50.2894 92.7332C50.0425 91.7315 49.9893 90.6922 50.1326 89.6707C50.2424 88.8738 50.5404 88.1707 50.9483 87.5769C51.8894 86.2176 53.5365 85.3738 55.3404 85.3738C56.1971 85.3477 57.0469 85.534 57.8135 85.9158C58.5801 86.2976 59.2395 86.863 59.7326 87.5613C60.1404 88.1863 60.4385 88.8738 60.5326 89.6707C60.6895 90.5769 60.6267 91.6238 60.3757 92.7332C59.7796 95.3894 58.0228 98.5769 55.3404 102.03ZM75.3247 104.343C75.1465 105.63 74.6327 106.848 73.8346 107.876C73.0365 108.905 71.9818 109.706 70.7757 110.202C69.5836 110.702 68.2659 110.843 66.9796 110.702C65.7247 110.546 64.4698 110.139 63.1836 109.389C61.0479 108.075 59.1275 106.441 57.4895 104.546C60.7836 100.483 62.7757 96.7801 63.5287 93.4832C63.8895 91.9207 63.9365 90.5144 63.7796 89.2176C63.5838 87.9883 63.1236 86.8157 62.4306 85.7801C61.6394 84.657 60.5833 83.7448 59.3552 83.1236C58.1271 82.5024 56.7646 82.1913 55.3875 82.2176C52.4855 82.2176 49.8973 83.5613 48.3287 85.7644C47.6225 86.7975 47.1662 87.9794 46.9953 89.2176C46.7914 90.5301 46.8385 91.9832 47.2463 93.4832C47.9993 96.7801 50.0385 100.53 53.2855 104.577C51.6753 106.508 49.7504 108.156 47.5914 109.452C46.2894 110.202 45.0502 110.593 43.7953 110.749C41.8438 110.998 39.8724 110.469 38.3098 109.279C36.7471 108.088 35.7195 106.331 35.4502 104.389C35.2934 103.139 35.4032 101.889 35.9051 100.483C36.062 99.9832 36.2973 99.4832 36.5483 98.8894C36.8934 98.0769 37.3012 97.2332 37.6934 96.3894L37.7561 96.2801C41.1444 88.8269 44.8463 81.2176 48.6894 73.7644L48.8463 73.4519C49.2385 72.7019 49.6306 71.9051 50.0385 71.1551C50.4463 70.3582 50.8855 69.5926 51.4502 68.9676C51.939 68.3863 52.5498 67.9189 53.2395 67.5982C53.9293 67.2775 54.6812 67.1113 55.4424 67.1113C56.2036 67.1113 56.9555 67.2775 57.6452 67.5982C58.335 67.9189 58.9457 68.3863 59.4345 68.9676C59.9836 69.5926 60.4385 70.3582 60.8463 71.1551C61.2385 71.9051 61.6306 72.7176 62.0385 73.4519L62.1953 73.7644C66.0228 81.2176 69.7247 88.8269 73.1757 96.2801L73.2228 96.3269C73.6306 97.1394 73.9757 98.0457 74.3679 98.8269C74.6189 99.4363 74.8698 99.9207 75.0267 100.436C75.3247 101.843 75.4816 103.093 75.3247 104.343ZM97.16 101.686C95.978 101.704 94.8073 101.455 93.7346 100.96C92.662 100.465 91.715 99.7363 90.964 98.8269C89.2762 96.8894 88.3805 94.3911 88.4542 91.8269C88.4283 89.207 89.353 86.6658 91.0581 84.6707C91.8468 83.7498 92.8286 83.0123 93.9343 82.5102C95.0401 82.0081 96.2429 81.7535 97.4581 81.7644C98.6015 81.7333 99.7341 81.9923 100.749 82.517C101.765 83.0418 102.629 83.8152 103.262 84.7644L103.419 82.3113H107.999V101.186H103.403L103.246 98.4363C102.594 99.4498 101.692 100.28 100.627 100.849C99.562 101.418 98.3685 101.706 97.16 101.686ZM98.3522 97.1863C99.262 97.1863 100.062 96.9363 100.815 96.4832C101.505 95.9832 102.07 95.3269 102.509 94.5301C102.901 93.7332 103.105 92.7801 103.105 91.7176C103.166 90.7947 102.986 89.8719 102.582 89.0393C102.178 88.2067 101.563 87.4929 100.799 86.9676C100.065 86.5119 99.2173 86.2703 98.3522 86.2703C97.4871 86.2703 96.6394 86.5119 95.9051 86.9676C95.2149 87.4676 94.6502 88.1238 94.211 88.9207C93.7962 89.7995 93.5921 90.7623 93.6149 91.7332C93.5538 92.656 93.7341 93.5788 94.1383 94.4114C94.5425 95.244 95.1567 95.9579 95.9208 96.4832C96.6581 96.9363 97.4581 97.1863 98.3522 97.1863ZM115.842 77.2176C115.842 77.7644 115.748 78.2644 115.497 78.6707C115.246 79.0613 114.901 79.4207 114.446 79.6707C113.991 79.9207 113.505 80.0144 113.003 80.0144C112.501 80.0144 111.999 79.9207 111.544 79.6707C111.114 79.4321 110.752 79.0879 110.493 78.6707C110.25 78.2256 110.131 77.7239 110.148 77.2176C110.148 76.6551 110.258 76.1551 110.493 75.7644C110.744 75.2957 111.105 75.0144 111.544 74.7644C111.999 74.5144 112.486 74.4051 113.003 74.4051C113.502 74.3936 113.996 74.5114 114.436 74.7469C114.876 74.9825 115.247 75.3277 115.513 75.7488C115.741 76.2044 115.854 76.7086 115.842 77.2176ZM110.509 101.124V82.2801H115.497V101.155H110.493L110.509 101.124ZM128.831 87.2176V87.2801C128.595 87.1707 128.282 87.1238 128.046 87.0769C127.733 87.0144 127.482 87.0144 127.184 87.0144C125.787 87.0144 124.737 87.4207 124.046 88.2644C123.293 89.1238 122.948 90.3269 122.948 91.8738V101.139H117.944V82.2644H122.54L122.697 85.1238C123.199 84.1238 123.795 83.3738 124.642 82.8113C125.485 82.2648 126.477 81.9918 127.482 82.0301C127.842 82.0301 128.187 82.0613 128.486 82.1238C128.642 82.1707 128.737 82.1707 128.831 82.2176V87.2176ZM130.838 101.124V74.5301H135.827V84.6863C136.533 83.7801 137.333 83.0769 138.337 82.5301C139.926 81.7539 141.731 81.5337 143.462 81.9051C145.192 82.2764 146.746 83.2177 147.874 84.5769C149.565 86.5185 150.461 89.023 150.384 91.5926C150.409 94.2125 149.485 96.7537 147.78 98.7488C146.991 99.6697 146.009 100.407 144.903 100.909C143.798 101.411 142.595 101.666 141.38 101.655C140.236 101.686 139.104 101.427 138.088 100.902C137.073 100.378 136.208 99.6043 135.576 98.6551L135.419 101.108L130.838 101.155V101.124ZM140.486 97.1863C141.38 97.1863 142.18 96.9363 142.933 96.4832C143.623 95.9832 144.187 95.3269 144.627 94.5301C145.035 93.7332 145.223 92.7801 145.223 91.7176C145.223 90.6707 145.035 89.7176 144.627 88.9207C144.215 88.1523 143.636 87.4851 142.933 86.9676C142.198 86.5119 141.351 86.2703 140.486 86.2703C139.62 86.2703 138.773 86.5119 138.038 86.9676C137.333 87.4676 136.784 88.1238 136.329 88.9207C135.914 89.7995 135.71 90.7623 135.733 91.7332C135.671 92.656 135.852 93.5788 136.256 94.4114C136.66 95.244 137.274 95.9579 138.038 96.4832C138.776 96.9363 139.576 97.1863 140.486 97.1863ZM152.266 101.139V82.2644H156.862L157.019 84.7176C157.596 83.7772 158.416 83.0077 159.392 82.4885C160.368 81.9693 161.466 81.7193 162.572 81.7644C163.836 81.7427 165.079 82.0927 166.145 82.7709C167.211 83.449 168.052 84.425 168.564 85.5769C169.113 86.7644 169.411 88.2332 169.411 89.8738V101.186H164.407V90.5301C164.407 89.2176 164.109 88.1863 163.513 87.4207C162.917 86.6707 162.101 86.2644 161.066 86.2644C160.313 86.2644 159.654 86.4207 159.074 86.7644C158.525 87.1238 158.07 87.5769 157.725 88.2176C157.376 88.8651 157.203 89.5923 157.223 90.3269V101.139H152.266ZM171.905 101.139V74.5144H176.909V84.6707C177.587 83.7594 178.469 83.018 179.484 82.5054C180.5 81.9928 181.621 81.723 182.76 81.7176C183.942 81.7003 185.113 81.9484 186.185 82.4434C187.258 82.9384 188.205 83.6676 188.956 84.5769C190.636 86.5184 191.525 89.0153 191.45 91.5769C191.477 94.1972 190.553 96.7388 188.846 98.7332C188.058 99.6541 187.076 100.392 185.97 100.894C184.864 101.396 183.661 101.65 182.446 101.639C181.303 101.671 180.17 101.412 179.155 100.887C178.14 100.362 177.275 99.5887 176.642 98.6394L176.501 101.093L171.905 101.139ZM181.599 97.1863C182.509 97.1863 183.309 96.9363 184.046 96.4832C184.752 95.9832 185.301 95.3269 185.756 94.5301C186.148 93.7332 186.352 92.7801 186.352 91.7176C186.413 90.7947 186.233 89.8719 185.829 89.0393C185.425 88.2067 184.81 87.4929 184.046 86.9676C183.312 86.5119 182.464 86.2703 181.599 86.2703C180.734 86.2703 179.886 86.5119 179.152 86.9676C178.462 87.4676 177.897 88.1238 177.458 88.9207C177.02 89.7917 176.815 90.7603 176.862 91.7332C176.801 92.656 176.981 93.5788 177.385 94.4114C177.79 95.244 178.404 95.9579 179.168 96.4832C179.905 96.9363 180.658 97.1863 181.599 97.1863Z" fill="#FF385C"/>
</g>
<g style="mix-blend-mode:luminosity" clip-path="url(#clip1_1180_966)">
<path d="M321.136 77.2831V89.6943H310.195V77.2831H305V106.91H310.195V94.9016H321.136V106.91H326.33V77.2831H321.136Z" fill="#33475B"/>
<path d="M342.955 97.3329C342.955 98.5203 342.502 99.659 341.696 100.499C340.89 101.338 339.797 101.81 338.658 101.81C337.518 101.81 336.425 101.338 335.619 100.499C334.813 99.659 334.36 98.5203 334.36 97.3329V84.6433H329.433V97.3329C329.433 99.8792 330.404 102.321 332.132 104.122C333.86 105.922 336.204 106.934 338.649 106.934C341.093 106.934 343.437 105.922 345.165 104.122C346.893 102.321 347.864 99.8792 347.864 97.3329V84.6433H342.955V97.3329Z" fill="#33475B"/>
<path d="M379.462 85.9505C379.462 83.3495 381.114 82.5249 382.923 82.5249C384.382 82.5249 386.308 83.6809 387.568 85.0835L390.795 81.1223C389.184 78.8527 385.916 77.2831 383.242 77.2831C377.897 77.2831 374.031 80.5443 374.031 85.9505C374.031 95.9808 385.799 92.7991 385.799 98.4121C385.799 100.143 384.186 101.673 382.338 101.673C379.424 101.673 378.48 100.189 377.141 98.6189L373.56 102.498C375.851 105.428 378.676 106.915 382.061 106.915C387.138 106.915 391.223 103.614 391.223 98.4545C391.223 87.3186 379.454 90.7787 379.454 85.9505" fill="#33475B"/>
<path d="M452.267 102.177C449.355 102.177 448.528 100.865 448.528 98.8549V89.9595H453.053V85.4521H448.528V79.505L443.532 81.8409V99.9606C443.532 104.595 446.601 106.931 450.811 106.931C451.471 106.944 452.131 106.889 452.781 106.767L454 102.092C453.45 102.132 452.819 102.172 452.267 102.172" fill="#33475B"/>
<path d="M361.71 84.7918C359.269 84.7918 357.566 85.5289 355.92 87.2125V77.4607H350.985V95.5353C350.985 102.302 355.68 106.936 360.956 106.936C366.81 106.936 371.959 102.219 371.959 95.8667C371.959 89.5935 367.22 84.7945 361.71 84.7945V84.7918ZM361.679 101.763C360.572 101.763 359.489 101.421 358.569 100.78C357.648 100.139 356.93 99.2284 356.506 98.1626C356.082 97.0967 355.972 95.9239 356.188 94.7924C356.404 93.6609 356.937 92.6215 357.72 91.8057C358.503 90.99 359.501 90.4344 360.587 90.2094C361.673 89.9843 362.799 90.0998 363.822 90.5413C364.845 90.9828 365.72 91.7304 366.335 92.6897C366.95 93.6489 367.278 94.7767 367.278 95.9304C367.278 97.4774 366.689 98.961 365.638 100.055C364.588 101.149 363.164 101.763 361.679 101.763Z" fill="#33475B"/>
<path d="M415.294 95.5963C415.294 89.233 410.156 84.5267 404.292 84.5267C399.016 84.5267 394.32 89.1614 394.32 95.9278V114.013H399.255V104.248C400.899 105.929 402.604 106.669 405.042 106.669C410.553 106.669 415.292 101.872 415.292 95.5963H415.294ZM410.621 95.5327C410.621 96.6864 410.293 97.8141 409.678 98.7734C409.062 99.7326 408.188 100.48 407.165 100.922C406.142 101.363 405.016 101.479 403.93 101.254C402.844 101.029 401.846 100.473 401.063 99.6573C400.28 98.8415 399.746 97.8022 399.53 96.6707C399.314 95.5392 399.425 94.3663 399.849 93.3005C400.273 92.2346 400.991 91.3236 401.911 90.6827C402.832 90.0417 403.915 89.6996 405.022 89.6996C406.507 89.6996 407.931 90.3142 408.981 91.4081C410.031 92.502 410.621 93.9857 410.621 95.5327Z" fill="#33475B"/>
<path d="M431.237 84.2775V79.1126C431.892 78.7937 432.447 78.2874 432.836 77.6528C433.226 77.0182 433.435 76.2813 433.438 75.5279V75.4086C433.438 74.3538 433.036 73.3422 432.32 72.5963C431.604 71.8505 430.633 71.4315 429.621 71.4315H429.506C428.494 71.4315 427.523 71.8505 426.807 72.5963C426.091 73.3422 425.688 74.3538 425.688 75.4086V75.5279C425.692 76.2813 425.901 77.0182 426.29 77.6528C426.68 78.2874 427.235 78.7937 427.89 79.1126V84.2775C426.007 84.5776 424.233 85.3908 422.749 86.6346L409.153 75.6021C409.249 75.2383 409.301 74.8632 409.306 74.4859C409.307 73.5995 409.056 72.7326 408.585 71.9948C408.113 71.257 407.442 70.6815 406.657 70.341C405.871 70.0004 405.007 69.9103 404.172 70.0818C403.337 70.2534 402.57 70.679 401.968 71.3048C401.365 71.9306 400.954 72.7285 400.787 73.5976C400.62 74.4667 400.704 75.3678 401.029 76.1872C401.353 77.0065 401.904 77.7072 402.61 78.2005C403.317 78.6939 404.149 78.9578 404.999 78.9588C405.743 78.9553 406.474 78.7487 407.117 78.3596L420.507 89.2118C419.304 91.1048 418.676 93.3316 418.705 95.6017C418.735 97.8719 419.42 100.08 420.672 101.938L416.6 106.181C416.271 106.071 415.928 106.013 415.582 106.008C414.883 106.009 414.201 106.225 413.62 106.63C413.04 107.034 412.587 107.609 412.32 108.281C412.053 108.954 411.983 109.694 412.12 110.407C412.256 111.121 412.593 111.776 413.087 112.291C413.58 112.805 414.21 113.156 414.895 113.298C415.58 113.44 416.29 113.367 416.935 113.089C417.581 112.811 418.132 112.34 418.521 111.735C418.909 111.13 419.117 110.419 419.117 109.691C419.113 109.331 419.057 108.974 418.952 108.631L422.98 104.433C424.294 105.487 425.822 106.213 427.447 106.556C429.071 106.899 430.75 106.85 432.353 106.413C433.957 105.976 435.444 105.163 436.699 104.035C437.954 102.907 438.945 101.495 439.596 99.9068C440.247 98.3184 440.54 96.596 440.453 94.8714C440.366 93.1469 439.901 91.466 439.094 89.9574C438.287 88.4488 437.16 87.1527 435.798 86.1682C434.436 85.1837 432.876 84.5369 431.237 84.2775ZM429.567 101.262C428.465 101.261 427.388 100.92 426.472 100.281C425.556 99.6429 424.843 98.7358 424.422 97.6748C424 96.6139 423.891 95.4467 424.106 94.3207C424.321 93.1948 424.852 92.1607 425.632 91.349C426.411 90.5374 427.404 89.9847 428.485 89.7608C429.566 89.5368 430.686 89.6518 431.705 90.091C432.723 90.5302 433.593 91.2741 434.206 92.2285C434.818 93.1829 435.146 94.3051 435.146 95.4532C435.146 96.9932 434.559 98.4701 433.514 99.559C432.468 100.648 431.051 101.26 429.572 101.26" fill="#FF7A59"/>
</g>
<g style="mix-blend-mode:luminosity">
<path d="M630.833 89.6413C630.833 96.5815 625.323 101.696 618.562 101.696C611.801 101.696 606.292 96.5815 606.292 89.6413C606.292 82.6521 611.801 77.5869 618.562 77.5869C625.323 77.5869 630.833 82.6521 630.833 89.6413ZM625.461 89.6413C625.461 85.3043 622.268 82.3369 618.562 82.3369C614.857 82.3369 611.664 85.3043 611.664 89.6413C611.664 93.9347 614.857 96.9456 618.562 96.9456C622.268 96.9456 625.461 93.9293 625.461 89.6413Z" fill="#EA4335"/>
<path d="M657.303 89.6413C657.303 96.5815 651.794 101.696 645.033 101.696C638.272 101.696 632.763 96.5815 632.763 89.6413C632.763 82.6576 638.272 77.5869 645.033 77.5869C651.794 77.5869 657.303 82.6521 657.303 89.6413ZM651.932 89.6413C651.932 85.3043 648.739 82.3369 645.033 82.3369C641.327 82.3369 638.134 85.3043 638.134 89.6413C638.134 93.9347 641.327 96.9456 645.033 96.9456C648.739 96.9456 651.932 93.9293 651.932 89.6413Z" fill="#FBBC05"/>
<path d="M682.671 78.3152V99.9565C682.671 108.859 677.344 112.495 671.046 112.495C665.118 112.495 661.549 108.587 660.204 105.391L664.88 103.473C665.713 105.435 667.754 107.75 671.04 107.75C675.072 107.75 677.57 105.299 677.57 100.685V98.951H677.382C676.18 100.413 673.864 101.69 670.941 101.69C664.825 101.69 659.222 96.4402 659.222 89.6847C659.222 82.8804 664.825 77.5869 670.941 77.5869C673.858 77.5869 676.175 78.8641 677.382 80.2826H677.57V78.3206H682.671V78.3152ZM677.95 89.6847C677.95 85.4402 675.077 82.3369 671.421 82.3369C667.715 82.3369 664.61 85.4402 664.61 89.6847C664.61 93.8858 667.715 96.9456 671.421 96.9456C675.077 96.9456 677.95 93.8858 677.95 89.6847Z" fill="#4285F4"/>
<path d="M691.081 65.6305V100.957H685.842V65.6305H691.081Z" fill="#34A853"/>
<path d="M711.496 93.6087L715.666 96.3478C714.32 98.3098 711.077 101.69 705.474 101.69C698.526 101.69 693.337 96.3968 693.337 89.6359C693.337 82.4674 698.57 77.5815 704.873 77.5815C711.221 77.5815 714.326 82.5598 715.34 85.25L715.897 86.6196L699.546 93.2935C700.798 95.712 702.745 96.9457 705.474 96.9457C708.21 96.9457 710.107 95.6196 711.496 93.6087ZM698.664 89.2718L709.594 84.7989C708.993 83.2935 707.184 82.2446 705.055 82.2446C702.326 82.2446 698.526 84.6196 698.664 89.2718Z" fill="#EA4335"/>
<path d="M586.462 86.5055V81.3914H603.949C604.12 82.2827 604.208 83.337 604.208 84.4783C604.208 88.3153 603.144 93.0598 599.713 96.4403C596.377 99.8642 592.114 101.69 586.467 101.69C576 101.69 567.199 93.2881 567.199 82.9729C567.199 72.6577 576 64.2555 586.467 64.2555C592.258 64.2555 596.383 66.4946 599.482 69.4131L595.82 73.0218C593.598 70.9674 590.587 69.3696 586.462 69.3696C578.818 69.3696 572.84 75.4403 572.84 82.9729C572.84 90.5055 578.818 96.5761 586.462 96.5761C591.419 96.5761 594.243 94.6142 596.052 92.8316C597.519 91.3859 598.484 89.3207 598.864 86.5001L586.462 86.5055Z" fill="#4285F4"/>
</g>
<g style="mix-blend-mode:luminosity" clip-path="url(#clip2_1180_966)">
<path d="M906.597 94.9186L905.303 98.4767H905.195C904.98 97.6744 904.585 96.4535 903.938 94.9883L897.004 78.0697H890.214V105.035H894.705V88.3953C894.705 87.3488 894.705 86.1628 894.669 84.6976C894.633 83.9651 894.561 83.4069 894.525 82.9883H894.633C894.848 84.0349 895.1 84.8023 895.28 85.2907L903.615 104.965H906.776L915.04 85.1162C915.219 84.6628 915.399 83.7558 915.578 82.9883H915.686C915.578 84.9767 915.507 86.7558 915.471 87.8372V104.93H920.249V78H913.71L906.597 94.9186ZM924.776 85.6046H929.446V104.93H924.776V85.6046ZM927.147 77.4418C926.357 77.4418 925.71 77.7209 925.171 78.2093C924.632 78.6976 924.345 79.3255 924.345 80.093C924.345 80.8255 924.632 81.4535 925.171 81.9418C925.71 82.4302 926.357 82.6744 927.147 82.6744C927.937 82.6744 928.62 82.3953 929.123 81.9418C929.662 81.4535 929.949 80.8255 929.949 80.093C929.949 79.3604 929.662 78.7325 929.123 78.2093C928.656 77.7209 927.973 77.4418 927.147 77.4418ZM946.009 85.4302C945.146 85.2558 944.248 85.1511 943.386 85.1511C941.266 85.1511 939.326 85.6046 937.71 86.5116C936.093 87.4186 934.799 88.6744 933.973 90.2442C933.111 91.8488 932.68 93.6976 932.68 95.8255C932.68 97.6744 933.111 99.3139 933.937 100.814C934.764 102.279 935.913 103.465 937.458 104.267C938.931 105.07 940.656 105.488 942.596 105.488C944.823 105.488 946.727 105.035 948.236 104.198L948.272 104.163V99.9767L948.093 100.116C947.41 100.605 946.619 101.023 945.829 101.267C945.003 101.546 944.248 101.686 943.602 101.686C941.733 101.686 940.26 101.163 939.218 100.012C938.141 98.8953 937.602 97.3604 937.602 95.4418C937.602 93.4535 938.141 91.8837 939.254 90.7325C940.368 89.5814 941.841 88.9883 943.638 88.9883C945.146 88.9883 946.691 89.4767 948.093 90.4535L948.272 90.593V86.1628L948.236 86.1279C947.625 85.8837 946.943 85.6046 946.009 85.4302ZM961.421 85.2907C960.272 85.2907 959.194 85.6395 958.26 86.3721C957.469 87 956.931 87.9069 956.464 88.9883H956.428V85.6046H951.757V104.93H956.428V95.0581C956.428 93.3837 956.787 91.9883 957.577 90.9767C958.368 89.9302 959.374 89.4069 960.595 89.4069C961.026 89.4069 961.457 89.5116 961.996 89.5814C962.499 89.7209 962.859 89.8604 963.11 90.0349L963.29 90.1744V85.6395L963.182 85.6046C962.859 85.3953 962.212 85.2907 961.421 85.2907ZM974.14 85.186C970.87 85.186 968.248 86.1279 966.415 87.9767C964.547 89.8256 963.649 92.3721 963.649 95.5814C963.649 98.5814 964.583 101.023 966.379 102.802C968.176 104.546 970.619 105.453 973.673 105.453C976.87 105.453 979.421 104.512 981.253 102.628C983.121 100.744 984.02 98.2325 984.02 95.1279C984.02 92.0581 983.157 89.6162 981.397 87.8372C979.708 86.0581 977.229 85.186 974.14 85.186ZM977.876 100.046C977.014 101.128 975.649 101.651 973.96 101.651C972.271 101.651 970.906 101.128 969.936 99.9767C968.966 98.8953 968.499 97.3255 968.499 95.3372C968.499 93.279 969.002 91.7093 969.936 90.593C970.906 89.4767 972.236 88.9186 973.924 88.9186C975.577 88.9186 976.87 89.4418 977.804 90.5232C978.738 91.6046 979.241 93.1744 979.241 95.2325C979.169 97.3255 978.774 98.9651 977.876 100.046ZM994.439 93.6279C992.966 93.0349 992.031 92.5814 991.6 92.1976C991.241 91.8488 991.061 91.3604 991.061 90.7325C991.061 90.2093 991.277 89.686 991.816 89.3372C992.355 88.9883 992.966 88.8139 993.864 88.8139C994.654 88.8139 995.48 88.9535 996.271 89.1628C997.061 89.3721 997.78 89.686 998.355 90.1046L998.534 90.2442V85.9883L998.426 85.9535C997.888 85.7442 997.169 85.5349 996.307 85.3604C995.444 85.2209 994.654 85.1511 994.007 85.1511C991.78 85.1511 989.948 85.6744 988.511 86.8255C987.073 87.9069 986.391 89.3721 986.391 91.0814C986.391 91.9883 986.535 92.7907 986.858 93.4535C987.181 94.1162 987.648 94.7442 988.295 95.2674C988.942 95.7558 989.876 96.3139 991.169 96.8372C992.247 97.2907 993.073 97.6395 993.576 97.9186C994.079 98.1976 994.403 98.5116 994.654 98.7558C994.834 99.0349 994.941 99.3837 994.941 99.8372C994.941 101.128 993.936 101.756 991.888 101.756C991.097 101.756 990.271 101.616 989.301 101.302C988.331 100.988 987.433 100.535 986.678 100.012L986.499 99.8721V104.302L986.606 104.337C987.289 104.651 988.115 104.86 989.121 105.105C990.127 105.279 991.025 105.419 991.816 105.419C994.223 105.419 996.199 104.895 997.6 103.744C999.037 102.628 999.792 101.198 999.792 99.3488C999.792 98.0581 999.432 96.9069 998.642 96.0349C997.6 95.1976 996.307 94.3255 994.439 93.6279ZM1012.11 85.186C1008.85 85.186 1006.22 86.1279 1004.39 87.9767C1002.56 89.8256 1001.62 92.3721 1001.62 95.5814C1001.62 98.5814 1002.56 101.023 1004.35 102.802C1006.15 104.546 1008.59 105.453 1011.65 105.453C1014.85 105.453 1017.4 104.512 1019.23 102.628C1021.1 100.744 1021.99 98.2325 1021.99 95.1279C1021.99 92.0581 1021.13 89.6162 1019.37 87.8372C1017.68 86.0581 1015.2 85.186 1012.11 85.186ZM1015.82 100.046C1014.95 101.128 1013.59 101.651 1011.9 101.651C1010.17 101.651 1008.85 101.128 1007.88 99.9767C1006.91 98.8953 1006.44 97.3255 1006.44 95.3372C1006.44 93.279 1006.94 91.7093 1007.88 90.593C1008.85 89.4767 1010.17 88.9186 1011.86 88.9186C1013.48 88.9186 1014.81 89.4418 1015.74 90.5232C1016.68 91.6046 1017.18 93.1744 1017.18 95.2325C1017.18 97.3255 1016.71 98.9651 1015.82 100.046ZM1046.96 89.3372V85.6046H1042.26V79.8837L1042.11 79.9186L1037.66 81.2093L1037.55 81.2442V85.6046H1030.51V83.1628C1030.51 82.0465 1030.8 81.1744 1031.3 80.6162C1031.8 80.0581 1032.56 79.779 1033.49 79.779C1034.14 79.779 1034.82 79.9186 1035.58 80.2325L1035.75 80.3372V76.3953L1035.65 76.3604C1035 76.1511 1034.14 76.0116 1033.02 76.0116C1031.62 76.0116 1030.4 76.3255 1029.29 76.8488C1028.17 77.4418 1027.35 78.2442 1026.74 79.3255C1026.13 80.3721 1025.8 81.5581 1025.8 82.9186V85.6046H1022.53V89.3023H1025.8V104.93H1030.51V89.3372H1037.55V99.279C1037.55 103.36 1039.53 105.419 1043.48 105.419C1044.13 105.419 1044.81 105.314 1045.46 105.209C1046.14 105.07 1046.64 104.895 1046.93 104.756L1046.96 104.721V100.988L1046.78 101.128C1046.5 101.302 1046.25 101.442 1045.81 101.546C1045.46 101.651 1045.13 101.686 1044.88 101.686C1043.95 101.686 1043.3 101.477 1042.83 100.953C1042.4 100.465 1042.19 99.6628 1042.19 98.4767V89.3372H1046.96Z" fill="#737373"/>
<path d="M830 69H852.023V90.3837H830V69Z" fill="#F25022"/>
<path d="M854.323 69H876.346V90.3837H854.323V69Z" fill="#7FBA00"/>
<path d="M830 92.6163H852.023V114H830V92.6163Z" fill="#00A4EF"/>
<path d="M854.323 92.6163H876.346V114H854.323V92.6163Z" fill="#FFB900"/>
</g>
<g style="mix-blend-mode:luminosity" clip-path="url(#clip3_1180_966)">
<path d="M1230.46 85.0059V87.5561H1230.54C1231.49 86.1907 1233.06 84.5827 1236.54 84.5827C1239.25 84.5827 1241.32 85.9199 1242.21 87.9398H1242.29C1243.05 86.9186 1243.93 86.1456 1244.9 85.5983C1246.06 84.9495 1247.34 84.5771 1248.96 84.5771C1252.63 84.5771 1255.88 86.8904 1255.88 92.7243V103.789H1250.29V93.4973C1250.29 90.5408 1249.19 88.8313 1246.9 88.8313C1245.22 88.8313 1244.01 89.8581 1243.54 91.122C1243.38 91.5564 1243.31 92.1488 1243.31 92.6453V103.794H1237.72V93.0798C1237.72 90.569 1236.66 88.8256 1234.41 88.8256C1232.6 88.8256 1231.47 90.1233 1231.01 91.2348C1230.81 91.7087 1230.75 92.256 1230.75 92.7695V103.789H1225.15V85.0059H1230.46ZM1284.72 85.0059V88.5491H1284.87C1285.9 85.8409 1288.33 84.5827 1290.47 84.5827C1291.01 84.5827 1291.31 84.6222 1291.74 84.7012V89.6212C1291.23 89.5534 1290.75 89.4857 1290.08 89.4857C1287.66 89.4857 1285.97 90.7721 1285.55 92.7864C1285.45 93.2039 1285.42 93.6553 1285.42 94.1744V103.794H1279.69V85.0059H1284.72ZM1299.53 78.7826V84.6956H1304.38V89.4801H1299.53V96.5384C1299.53 98.8235 1300.17 99.9293 1302.06 99.9293C1302.95 99.9293 1303.6 99.8278 1304.17 99.698L1304.25 103.664C1303.48 103.924 1301.87 104.206 1300.22 104.206C1298.29 104.206 1296.67 103.591 1295.69 102.638C1294.56 101.549 1294.05 99.7657 1294.05 97.2268V78.7826H1299.53ZM1221.26 103.789H1215.7V78.7826H1221.26V103.789ZM1206.42 97.0801C1206.42 97.4242 1206.39 97.7853 1206.29 98.0956C1205.85 99.399 1204.38 100.499 1202.53 100.499C1201 100.499 1199.77 99.7037 1199.77 98.0167C1199.77 95.4382 1202.89 94.7216 1206.43 94.7386V97.0801H1206.42ZM1211.98 92.5833C1211.98 88.3235 1209.99 84.5827 1203.26 84.5827C1199.8 84.5827 1197.06 85.4685 1195.56 86.2584L1196.66 89.6776C1198.02 88.8877 1200.2 88.2388 1202.27 88.2388C1205.69 88.2332 1206.24 90.0048 1206.24 91.1389V91.4097C1198.8 91.3984 1194.09 93.7512 1194.09 98.547C1194.09 101.475 1196.48 104.217 1200.65 104.217C1203.21 104.217 1205.35 103.286 1206.64 101.791H1206.76C1206.76 101.791 1207.62 105.035 1212.3 103.794C1212.05 102.44 1211.97 101.001 1211.97 99.2692V92.5833H1211.98ZM1166.14 78.7826C1166.72 81.4288 1168.35 89.1134 1168.35 89.1134C1169.04 92.273 1169.67 95.5849 1170.14 98.2029H1170.23C1170.69 95.4213 1171.42 92.7864 1172.2 89.5252L1174.95 78.7826H1181.04L1183.61 89.8017C1184.29 92.8654 1184.82 95.2294 1185.25 98.0787H1185.33C1185.8 95.2012 1186.4 92.7413 1187.06 89.5929L1189.54 78.7826H1195.38L1188.14 103.789C1183.53 104.708 1181.76 103.016 1181.13 100.33C1180.5 97.6386 1179.26 92.5212 1179.26 92.5212C1178.62 89.7171 1178.13 87.7423 1177.78 84.8648H1177.7C1177.2 87.7141 1176.68 89.7114 1175.92 92.5156L1172.88 103.794C1168.17 104.652 1166.54 103.382 1165.64 99.935C1164.86 96.9841 1160 78.7882 1160 78.7882H1166.14V78.7826ZM1270.41 97.0801C1270.41 97.4242 1270.38 97.7853 1270.28 98.0956C1269.85 99.399 1268.37 100.499 1266.53 100.499C1264.99 100.499 1263.76 99.7037 1263.76 98.0167C1263.76 95.4382 1266.88 94.7216 1270.42 94.7386V97.0801H1270.41ZM1275.97 92.5833C1275.97 88.3235 1273.98 84.5827 1267.25 84.5827C1263.79 84.5827 1261.05 85.4685 1259.55 86.2584L1260.65 89.6776C1262.01 88.8877 1264.2 88.2388 1266.26 88.2388C1269.67 88.2332 1270.23 90.0048 1270.23 91.1389V91.4097C1262.79 91.3984 1258.09 93.7512 1258.09 98.547C1258.09 101.475 1260.49 104.217 1264.65 104.217C1267.21 104.217 1269.35 103.286 1270.63 101.791H1270.76C1270.76 101.791 1271.61 105.035 1276.3 103.794C1276.05 102.44 1275.97 101.001 1275.97 99.2692V92.5833Z" fill="#041E42"/>
<path d="M1326.93 95.1764C1327.48 96.0896 1327.44 97.1088 1326.85 97.5742L1316.74 104.355C1315.68 104.939 1314.1 104.232 1313.21 102.753C1312.31 101.268 1312.47 99.6127 1313.53 99.0295L1324.73 94.0452C1325.43 93.7859 1326.38 94.2632 1326.93 95.1764ZM1340.24 95.1764C1340.8 94.2632 1341.74 93.7918 1342.44 94.0393L1353.65 99.0236C1354.7 99.6068 1354.86 101.262 1353.96 102.747C1353.06 104.226 1351.48 104.927 1350.43 104.35L1340.32 97.5683C1339.74 97.1088 1339.69 96.0837 1340.24 95.1764ZM1333.58 98.8527C1334.68 98.8527 1335.59 99.3947 1335.71 100.108L1336.8 111.879C1336.8 113.046 1335.38 114 1333.59 114C1331.8 114 1330.37 113.046 1330.37 111.879L1331.46 100.108C1331.58 99.3947 1332.48 98.8527 1333.58 98.8527ZM1340.32 85.4317L1350.43 78.6445C1351.48 78.0613 1353.06 78.7624 1353.96 80.2471C1354.86 81.7317 1354.7 83.3873 1353.65 83.9705L1342.44 88.9607C1341.74 89.2082 1340.79 88.7368 1340.24 87.8236C1339.69 86.9104 1339.74 85.8912 1340.32 85.4317ZM1324.73 88.9607L1313.53 83.9705C1312.48 83.3873 1312.32 81.7317 1313.21 80.2471C1314.1 78.7624 1315.69 78.0613 1316.74 78.6445L1326.85 85.4317C1327.44 85.8853 1327.48 86.9104 1326.93 87.8236C1326.38 88.7368 1325.43 89.2082 1324.73 88.9607ZM1331.46 82.8924L1330.37 71.121C1330.37 69.9544 1331.79 69 1333.59 69C1335.38 69 1336.8 69.9544 1336.8 71.121L1335.71 82.8924C1335.59 83.5994 1334.68 84.1473 1333.58 84.1473C1332.48 84.1473 1331.58 83.5994 1331.46 82.8924ZM1356.7 104.308V104.014H1356.98C1357.07 104.014 1357.13 104.073 1357.13 104.161C1357.13 104.244 1357.07 104.308 1356.98 104.308H1356.7ZM1356.47 104.844C1356.47 104.874 1356.5 104.903 1356.53 104.903H1356.65C1356.68 104.903 1356.71 104.874 1356.71 104.844V104.509H1356.9L1357.06 104.862C1357.07 104.886 1357.09 104.903 1357.11 104.903H1357.25C1357.3 104.903 1357.33 104.862 1357.31 104.821C1357.25 104.715 1357.2 104.603 1357.14 104.491C1357.24 104.462 1357.38 104.373 1357.38 104.161C1357.38 103.937 1357.19 103.808 1357 103.808H1356.53C1356.5 103.808 1356.47 103.837 1356.47 103.866V104.844ZM1355.97 104.355C1355.97 103.878 1356.38 103.489 1356.88 103.489C1357.38 103.489 1357.78 103.872 1357.78 104.355C1357.78 104.833 1357.38 105.222 1356.88 105.222C1356.37 105.222 1355.97 104.833 1355.97 104.355ZM1355.76 104.355C1355.76 104.945 1356.26 105.428 1356.88 105.428C1357.49 105.428 1358 104.945 1358 104.355C1358 103.766 1357.49 103.283 1356.88 103.283C1356.26 103.283 1355.76 103.766 1355.76 104.355Z" fill="#FFC124"/>
</g>
<g style="mix-blend-mode:luminosity" clip-path="url(#clip4_1180_966)">
<path d="M1576.6 112.683L1588.44 99.1361L1576.6 85.5873H1589.09L1594.96 92.1684L1600.6 85.5873H1612.66L1600.88 99.0802L1612.83 112.683H1600.28L1594.47 106.048L1588.71 112.683H1576.6Z" fill="#FF6600"/>
<path d="M1576.6 79.5134H1563.18V85.5873H1576.6V94.7412H1563.18V103.143H1576.6V112.683H1553.33V70H1576.6V79.5134Z" fill="#FF6600"/>
<path d="M1543.51 70V87.468H1543.4C1541.23 84.9248 1538.51 84.041 1535.36 84.041C1528.91 84.041 1524.05 88.5077 1522.34 94.4131C1520.4 87.9061 1515.38 83.9191 1507.93 83.9191C1501.89 83.9191 1497.12 86.681 1494.63 91.1816V85.5879H1482.14V79.5147H1495.77V70H1471V112.684H1482.14V94.7412H1493.24C1492.9 96.0593 1492.73 97.4705 1492.73 98.9595C1492.73 107.863 1499.41 114.111 1507.93 114.111C1515.1 114.111 1519.83 110.684 1522.33 104.436H1512.79C1511.49 106.313 1510.52 106.87 1507.93 106.87C1504.94 106.87 1502.36 104.212 1502.36 101.061H1521.79C1522.64 108.133 1528.05 114.232 1535.47 114.232C1538.68 114.232 1541.61 112.628 1543.4 109.919H1543.51V112.683H1553.33V70H1543.51ZM1502.67 94.8688C1503.29 92.1578 1505.36 90.3858 1507.93 90.3858C1510.77 90.3858 1512.73 92.1031 1513.25 94.8688C1513.47 94.8688 1502.67 94.8688 1502.67 94.8688ZM1537.55 106.184C1533.93 106.184 1531.69 102.752 1531.69 99.1676C1531.69 95.3365 1533.64 91.6524 1537.55 91.6524C1541.61 91.6524 1543.22 95.3365 1543.22 99.1676C1543.22 102.801 1541.51 106.184 1537.55 106.184Z" fill="#652C8F"/>
</g>
<defs>
<clipPath id="clip0_1180_966">
<rect width="160" height="50" fill="white" transform="translate(32 64)"/>
</clipPath>
<clipPath id="clip1_1180_966">
<rect width="149" height="44" fill="white" transform="translate(305 70)"/>
</clipPath>
<clipPath id="clip2_1180_966">
<rect width="217" height="45" fill="white" transform="translate(830 69)"/>
</clipPath>
<clipPath id="clip3_1180_966">
<rect width="198" height="45" fill="white" transform="translate(1160 69)"/>
</clipPath>
<clipPath id="clip4_1180_966">
<rect width="142" height="44" fill="white" transform="translate(1471 70)"/>
</clipPath>
</defs>
</svg>
